<mxfile host="app.diagrams.net" modified="2022-08-07T22:20:31.243Z" agent="5.0 (Windows NT 10.0; Win64; x64) AppleWebKit/537.36 (KHTML, like Gecko) Chrome/103.0.0.0 Safari/537.36" etag="nd00FxQFd2qtyc0uRQyc" version="20.2.3" type="github">
  <diagram id="C5RBs43oDa-KdzZeNtuy" name="Page-1">
    <mxGraphModel dx="1303" dy="2014" grid="1" gridSize="10" guides="1" tooltips="1" connect="1" arrows="1" fold="1" page="1" pageScale="1" pageWidth="827" pageHeight="1169" math="0" shadow="0">
      <root>
        <mxCell id="WIyWlLk6GJQsqaUBKTNV-0" />
        <mxCell id="WIyWlLk6GJQsqaUBKTNV-1" parent="WIyWlLk6GJQsqaUBKTNV-0" />
        <mxCell id="CO2EWsQIseIJ-V9sM7O--0" value="&#xa;&lt;p style=&quot;box-sizing: border-box; margin-top: 0px; margin-bottom: 1rem; color: rgb(0, 0, 0); font-family: Nunito, sans-serif; font-size: 16px; font-style: normal; font-variant-ligatures: normal; font-variant-caps: normal; font-weight: 400; letter-spacing: -0.64px; orphans: 2; text-align: left; text-indent: 0px; text-transform: none; widows: 2; word-spacing: 0px; -webkit-text-stroke-width: 0px; background-color: rgb(255, 255, 255); text-decoration-thickness: initial; text-decoration-style: initial; text-decoration-color: initial;&quot;&gt;1 - Üniversiteye ait sınıflıklar, çalışma ofisleri ve departmanlar vardır.&lt;/p&gt;&lt;p style=&quot;box-sizing: border-box; margin-top: 0px; margin-bottom: 1rem; color: rgb(0, 0, 0); font-family: Nunito, sans-serif; font-size: 16px; font-style: normal; font-variant-ligatures: normal; font-variant-caps: normal; font-weight: 400; letter-spacing: -0.64px; orphans: 2; text-align: left; text-indent: 0px; text-transform: none; widows: 2; word-spacing: 0px; -webkit-text-stroke-width: 0px; background-color: rgb(255, 255, 255); text-decoration-thickness: initial; text-decoration-style: initial; text-decoration-color: initial;&quot;&gt;2 - Departmanlara ait ofisler vardır.&lt;/p&gt;&lt;p style=&quot;box-sizing: border-box; margin-top: 0px; margin-bottom: 1rem; color: rgb(0, 0, 0); font-family: Nunito, sans-serif; font-size: 16px; font-style: normal; font-variant-ligatures: normal; font-variant-caps: normal; font-weight: 400; letter-spacing: -0.64px; orphans: 2; text-align: left; text-indent: 0px; text-transform: none; widows: 2; word-spacing: 0px; -webkit-text-stroke-width: 0px; background-color: rgb(255, 255, 255); text-decoration-thickness: initial; text-decoration-style: initial; text-decoration-color: initial;&quot;&gt;3 - Üniversiteye ait çalışanlar vardır. Bu çalışanlar profesör veya memur olabilir.&lt;/p&gt;&lt;p style=&quot;box-sizing: border-box; margin-top: 0px; margin-bottom: 1rem; color: rgb(0, 0, 0); font-family: Nunito, sans-serif; font-size: 16px; font-style: normal; font-variant-ligatures: normal; font-variant-caps: normal; font-weight: 400; letter-spacing: -0.64px; orphans: 2; text-align: left; text-indent: 0px; text-transform: none; widows: 2; word-spacing: 0px; -webkit-text-stroke-width: 0px; background-color: rgb(255, 255, 255); text-decoration-thickness: initial; text-decoration-style: initial; text-decoration-color: initial;&quot;&gt;4 - Her çalışan bir ofiste çalışır.&lt;/p&gt;&#xa;&#xa;" style="text;html=1;strokeColor=none;fillColor=none;align=center;verticalAlign=middle;whiteSpace=wrap;rounded=0;" vertex="1" parent="WIyWlLk6GJQsqaUBKTNV-1">
          <mxGeometry y="-120" width="340" height="220" as="geometry" />
        </mxCell>
        <mxCell id="CO2EWsQIseIJ-V9sM7O--1" value="" style="rounded=0;whiteSpace=wrap;html=1;" vertex="1" parent="WIyWlLk6GJQsqaUBKTNV-1">
          <mxGeometry x="319" y="50" width="180" height="140" as="geometry" />
        </mxCell>
        <mxCell id="CO2EWsQIseIJ-V9sM7O--2" value="" style="endArrow=none;html=1;rounded=0;entryX=1;entryY=0.25;entryDx=0;entryDy=0;exitX=0;exitY=0.25;exitDx=0;exitDy=0;" edge="1" parent="WIyWlLk6GJQsqaUBKTNV-1" source="CO2EWsQIseIJ-V9sM7O--1" target="CO2EWsQIseIJ-V9sM7O--1">
          <mxGeometry width="50" height="50" relative="1" as="geometry">
            <mxPoint x="180" y="160" as="sourcePoint" />
            <mxPoint x="230" y="110" as="targetPoint" />
          </mxGeometry>
        </mxCell>
        <mxCell id="CO2EWsQIseIJ-V9sM7O--3" value="" style="endArrow=none;html=1;rounded=0;entryX=1;entryY=0.75;entryDx=0;entryDy=0;exitX=0;exitY=0.75;exitDx=0;exitDy=0;" edge="1" parent="WIyWlLk6GJQsqaUBKTNV-1" source="CO2EWsQIseIJ-V9sM7O--1" target="CO2EWsQIseIJ-V9sM7O--1">
          <mxGeometry width="50" height="50" relative="1" as="geometry">
            <mxPoint x="170" y="132.5" as="sourcePoint" />
            <mxPoint x="350" y="132.5" as="targetPoint" />
            <Array as="points" />
          </mxGeometry>
        </mxCell>
        <mxCell id="CO2EWsQIseIJ-V9sM7O--4" style="edgeStyle=orthogonalEdgeStyle;rounded=0;orthogonalLoop=1;jettySize=auto;html=1;exitX=0.5;exitY=1;exitDx=0;exitDy=0;" edge="1" parent="WIyWlLk6GJQsqaUBKTNV-1" source="CO2EWsQIseIJ-V9sM7O--1" target="CO2EWsQIseIJ-V9sM7O--1">
          <mxGeometry relative="1" as="geometry" />
        </mxCell>
        <mxCell id="CO2EWsQIseIJ-V9sM7O--5" value="" style="rounded=0;whiteSpace=wrap;html=1;" vertex="1" parent="WIyWlLk6GJQsqaUBKTNV-1">
          <mxGeometry x="620" y="299.41" width="180" height="140" as="geometry" />
        </mxCell>
        <mxCell id="CO2EWsQIseIJ-V9sM7O--6" value="" style="endArrow=none;html=1;rounded=0;entryX=1;entryY=0.25;entryDx=0;entryDy=0;exitX=0;exitY=0.25;exitDx=0;exitDy=0;" edge="1" parent="WIyWlLk6GJQsqaUBKTNV-1" source="CO2EWsQIseIJ-V9sM7O--5" target="CO2EWsQIseIJ-V9sM7O--5">
          <mxGeometry width="50" height="50" relative="1" as="geometry">
            <mxPoint x="570" y="370" as="sourcePoint" />
            <mxPoint x="620" y="320" as="targetPoint" />
          </mxGeometry>
        </mxCell>
        <mxCell id="CO2EWsQIseIJ-V9sM7O--7" value="" style="endArrow=none;html=1;rounded=0;entryX=1;entryY=0.75;entryDx=0;entryDy=0;exitX=0;exitY=0.75;exitDx=0;exitDy=0;" edge="1" parent="WIyWlLk6GJQsqaUBKTNV-1" source="CO2EWsQIseIJ-V9sM7O--5" target="CO2EWsQIseIJ-V9sM7O--5">
          <mxGeometry width="50" height="50" relative="1" as="geometry">
            <mxPoint x="560" y="342.5" as="sourcePoint" />
            <mxPoint x="740" y="342.5" as="targetPoint" />
            <Array as="points" />
          </mxGeometry>
        </mxCell>
        <mxCell id="CO2EWsQIseIJ-V9sM7O--8" style="edgeStyle=orthogonalEdgeStyle;rounded=0;orthogonalLoop=1;jettySize=auto;html=1;exitX=0.5;exitY=1;exitDx=0;exitDy=0;" edge="1" parent="WIyWlLk6GJQsqaUBKTNV-1" source="CO2EWsQIseIJ-V9sM7O--5" target="CO2EWsQIseIJ-V9sM7O--5">
          <mxGeometry relative="1" as="geometry" />
        </mxCell>
        <mxCell id="CO2EWsQIseIJ-V9sM7O--9" value="" style="rounded=0;whiteSpace=wrap;html=1;" vertex="1" parent="WIyWlLk6GJQsqaUBKTNV-1">
          <mxGeometry x="324" y="299.41" width="180" height="140" as="geometry" />
        </mxCell>
        <mxCell id="CO2EWsQIseIJ-V9sM7O--10" value="" style="endArrow=none;html=1;rounded=0;entryX=1;entryY=0.25;entryDx=0;entryDy=0;exitX=0;exitY=0.25;exitDx=0;exitDy=0;" edge="1" parent="WIyWlLk6GJQsqaUBKTNV-1" source="CO2EWsQIseIJ-V9sM7O--9" target="CO2EWsQIseIJ-V9sM7O--9">
          <mxGeometry width="50" height="50" relative="1" as="geometry">
            <mxPoint x="290" y="370" as="sourcePoint" />
            <mxPoint x="340" y="320" as="targetPoint" />
          </mxGeometry>
        </mxCell>
        <mxCell id="CO2EWsQIseIJ-V9sM7O--11" value="" style="endArrow=none;html=1;rounded=0;entryX=1;entryY=0.75;entryDx=0;entryDy=0;exitX=0;exitY=0.75;exitDx=0;exitDy=0;" edge="1" parent="WIyWlLk6GJQsqaUBKTNV-1" source="CO2EWsQIseIJ-V9sM7O--9" target="CO2EWsQIseIJ-V9sM7O--9">
          <mxGeometry width="50" height="50" relative="1" as="geometry">
            <mxPoint x="280" y="342.5" as="sourcePoint" />
            <mxPoint x="460" y="342.5" as="targetPoint" />
            <Array as="points" />
          </mxGeometry>
        </mxCell>
        <mxCell id="CO2EWsQIseIJ-V9sM7O--12" style="edgeStyle=orthogonalEdgeStyle;rounded=0;orthogonalLoop=1;jettySize=auto;html=1;exitX=0.5;exitY=1;exitDx=0;exitDy=0;" edge="1" parent="WIyWlLk6GJQsqaUBKTNV-1" source="CO2EWsQIseIJ-V9sM7O--9" target="CO2EWsQIseIJ-V9sM7O--9">
          <mxGeometry relative="1" as="geometry" />
        </mxCell>
        <mxCell id="CO2EWsQIseIJ-V9sM7O--13" value="" style="rounded=0;whiteSpace=wrap;html=1;" vertex="1" parent="WIyWlLk6GJQsqaUBKTNV-1">
          <mxGeometry x="20" y="299.40999999999997" width="180" height="140" as="geometry" />
        </mxCell>
        <mxCell id="CO2EWsQIseIJ-V9sM7O--14" value="" style="endArrow=none;html=1;rounded=0;entryX=1;entryY=0.25;entryDx=0;entryDy=0;exitX=0;exitY=0.25;exitDx=0;exitDy=0;" edge="1" parent="WIyWlLk6GJQsqaUBKTNV-1" source="CO2EWsQIseIJ-V9sM7O--13" target="CO2EWsQIseIJ-V9sM7O--13">
          <mxGeometry width="50" height="50" relative="1" as="geometry">
            <mxPoint x="40" y="369.40999999999997" as="sourcePoint" />
            <mxPoint x="90" y="319.40999999999997" as="targetPoint" />
          </mxGeometry>
        </mxCell>
        <mxCell id="CO2EWsQIseIJ-V9sM7O--15" value="" style="endArrow=none;html=1;rounded=0;entryX=1;entryY=0.75;entryDx=0;entryDy=0;exitX=0;exitY=0.75;exitDx=0;exitDy=0;" edge="1" parent="WIyWlLk6GJQsqaUBKTNV-1" source="CO2EWsQIseIJ-V9sM7O--13" target="CO2EWsQIseIJ-V9sM7O--13">
          <mxGeometry width="50" height="50" relative="1" as="geometry">
            <mxPoint x="30" y="341.90999999999997" as="sourcePoint" />
            <mxPoint x="210" y="341.90999999999997" as="targetPoint" />
            <Array as="points" />
          </mxGeometry>
        </mxCell>
        <mxCell id="CO2EWsQIseIJ-V9sM7O--16" style="edgeStyle=orthogonalEdgeStyle;rounded=0;orthogonalLoop=1;jettySize=auto;html=1;exitX=0.5;exitY=1;exitDx=0;exitDy=0;" edge="1" parent="WIyWlLk6GJQsqaUBKTNV-1" source="CO2EWsQIseIJ-V9sM7O--13" target="CO2EWsQIseIJ-V9sM7O--13">
          <mxGeometry relative="1" as="geometry" />
        </mxCell>
        <mxCell id="CO2EWsQIseIJ-V9sM7O--17" value="Üniversite" style="text;html=1;strokeColor=none;fillColor=none;align=center;verticalAlign=middle;whiteSpace=wrap;rounded=0;" vertex="1" parent="WIyWlLk6GJQsqaUBKTNV-1">
          <mxGeometry x="324" y="50" width="170" height="30" as="geometry" />
        </mxCell>
        <mxCell id="CO2EWsQIseIJ-V9sM7O--18" value="Departman" style="text;html=1;strokeColor=none;fillColor=none;align=center;verticalAlign=middle;whiteSpace=wrap;rounded=0;" vertex="1" parent="WIyWlLk6GJQsqaUBKTNV-1">
          <mxGeometry x="30" y="299.40999999999997" width="170" height="30" as="geometry" />
        </mxCell>
        <mxCell id="CO2EWsQIseIJ-V9sM7O--19" value="Çalışma Ofisleri" style="text;html=1;strokeColor=none;fillColor=none;align=center;verticalAlign=middle;whiteSpace=wrap;rounded=0;" vertex="1" parent="WIyWlLk6GJQsqaUBKTNV-1">
          <mxGeometry x="329" y="299.40999999999997" width="170" height="30" as="geometry" />
        </mxCell>
        <mxCell id="CO2EWsQIseIJ-V9sM7O--21" value="Sınıflıklar" style="text;html=1;strokeColor=none;fillColor=none;align=center;verticalAlign=middle;whiteSpace=wrap;rounded=0;" vertex="1" parent="WIyWlLk6GJQsqaUBKTNV-1">
          <mxGeometry x="625" y="299.40999999999997" width="170" height="30" as="geometry" />
        </mxCell>
        <mxCell id="CO2EWsQIseIJ-V9sM7O--25" value="" style="endArrow=none;html=1;rounded=0;" edge="1" parent="WIyWlLk6GJQsqaUBKTNV-1">
          <mxGeometry width="50" height="50" relative="1" as="geometry">
            <mxPoint x="110" y="240" as="sourcePoint" />
            <mxPoint x="710" y="240" as="targetPoint" />
          </mxGeometry>
        </mxCell>
        <mxCell id="CO2EWsQIseIJ-V9sM7O--26" value="" style="endArrow=none;html=1;rounded=0;" edge="1" parent="WIyWlLk6GJQsqaUBKTNV-1">
          <mxGeometry width="50" height="50" relative="1" as="geometry">
            <mxPoint x="110" y="300" as="sourcePoint" />
            <mxPoint x="110" y="240" as="targetPoint" />
          </mxGeometry>
        </mxCell>
        <mxCell id="CO2EWsQIseIJ-V9sM7O--27" value="" style="endArrow=none;html=1;rounded=0;" edge="1" parent="WIyWlLk6GJQsqaUBKTNV-1">
          <mxGeometry width="50" height="50" relative="1" as="geometry">
            <mxPoint x="410" y="300" as="sourcePoint" />
            <mxPoint x="410" y="240" as="targetPoint" />
          </mxGeometry>
        </mxCell>
        <mxCell id="CO2EWsQIseIJ-V9sM7O--28" value="" style="endArrow=none;html=1;rounded=0;exitX=0.5;exitY=0;exitDx=0;exitDy=0;" edge="1" parent="WIyWlLk6GJQsqaUBKTNV-1" source="CO2EWsQIseIJ-V9sM7O--21">
          <mxGeometry width="50" height="50" relative="1" as="geometry">
            <mxPoint x="110" y="310" as="sourcePoint" />
            <mxPoint x="710" y="240" as="targetPoint" />
          </mxGeometry>
        </mxCell>
        <mxCell id="CO2EWsQIseIJ-V9sM7O--30" value="" style="rhombus;whiteSpace=wrap;html=1;rotation=-90;" vertex="1" parent="WIyWlLk6GJQsqaUBKTNV-1">
          <mxGeometry x="396.49999999999994" y="190" width="25" height="20" as="geometry" />
        </mxCell>
        <mxCell id="CO2EWsQIseIJ-V9sM7O--36" value="" style="endArrow=none;html=1;rounded=0;" edge="1" parent="WIyWlLk6GJQsqaUBKTNV-1">
          <mxGeometry width="50" height="50" relative="1" as="geometry">
            <mxPoint x="410" y="240" as="sourcePoint" />
            <mxPoint x="410" y="210" as="targetPoint" />
          </mxGeometry>
        </mxCell>
        <mxCell id="CO2EWsQIseIJ-V9sM7O--37" value="" style="rounded=0;whiteSpace=wrap;html=1;" vertex="1" parent="WIyWlLk6GJQsqaUBKTNV-1">
          <mxGeometry x="20" y="520" width="180" height="140" as="geometry" />
        </mxCell>
        <mxCell id="CO2EWsQIseIJ-V9sM7O--38" value="" style="endArrow=none;html=1;rounded=0;entryX=1;entryY=0.25;entryDx=0;entryDy=0;exitX=0;exitY=0.25;exitDx=0;exitDy=0;" edge="1" parent="WIyWlLk6GJQsqaUBKTNV-1" source="CO2EWsQIseIJ-V9sM7O--37" target="CO2EWsQIseIJ-V9sM7O--37">
          <mxGeometry width="50" height="50" relative="1" as="geometry">
            <mxPoint x="40" y="590" as="sourcePoint" />
            <mxPoint x="90" y="540" as="targetPoint" />
          </mxGeometry>
        </mxCell>
        <mxCell id="CO2EWsQIseIJ-V9sM7O--39" value="" style="endArrow=none;html=1;rounded=0;entryX=1;entryY=0.75;entryDx=0;entryDy=0;exitX=0;exitY=0.75;exitDx=0;exitDy=0;" edge="1" parent="WIyWlLk6GJQsqaUBKTNV-1" source="CO2EWsQIseIJ-V9sM7O--37" target="CO2EWsQIseIJ-V9sM7O--37">
          <mxGeometry width="50" height="50" relative="1" as="geometry">
            <mxPoint x="30" y="562.5" as="sourcePoint" />
            <mxPoint x="210" y="562.5" as="targetPoint" />
            <Array as="points" />
          </mxGeometry>
        </mxCell>
        <mxCell id="CO2EWsQIseIJ-V9sM7O--40" style="edgeStyle=orthogonalEdgeStyle;rounded=0;orthogonalLoop=1;jettySize=auto;html=1;exitX=0.5;exitY=1;exitDx=0;exitDy=0;" edge="1" parent="WIyWlLk6GJQsqaUBKTNV-1" source="CO2EWsQIseIJ-V9sM7O--37" target="CO2EWsQIseIJ-V9sM7O--37">
          <mxGeometry relative="1" as="geometry" />
        </mxCell>
        <mxCell id="CO2EWsQIseIJ-V9sM7O--41" value="Ofisler" style="text;html=1;strokeColor=none;fillColor=none;align=center;verticalAlign=middle;whiteSpace=wrap;rounded=0;" vertex="1" parent="WIyWlLk6GJQsqaUBKTNV-1">
          <mxGeometry x="30" y="520" width="170" height="30" as="geometry" />
        </mxCell>
        <mxCell id="CO2EWsQIseIJ-V9sM7O--42" value="" style="endArrow=none;html=1;rounded=0;exitX=0.5;exitY=0;exitDx=0;exitDy=0;" edge="1" parent="WIyWlLk6GJQsqaUBKTNV-1" source="CO2EWsQIseIJ-V9sM7O--41">
          <mxGeometry width="50" height="50" relative="1" as="geometry">
            <mxPoint x="80" y="510" as="sourcePoint" />
            <mxPoint x="115" y="440" as="targetPoint" />
          </mxGeometry>
        </mxCell>
        <mxCell id="CO2EWsQIseIJ-V9sM7O--43" value="has" style="text;html=1;strokeColor=none;fillColor=none;align=center;verticalAlign=middle;whiteSpace=wrap;rounded=0;" vertex="1" parent="WIyWlLk6GJQsqaUBKTNV-1">
          <mxGeometry x="120" y="470" width="60" height="30" as="geometry" />
        </mxCell>
        <mxCell id="CO2EWsQIseIJ-V9sM7O--45" value="" style="rounded=0;whiteSpace=wrap;html=1;" vertex="1" parent="WIyWlLk6GJQsqaUBKTNV-1">
          <mxGeometry x="480" y="500" width="180" height="140" as="geometry" />
        </mxCell>
        <mxCell id="CO2EWsQIseIJ-V9sM7O--46" value="" style="endArrow=none;html=1;rounded=0;entryX=1;entryY=0.25;entryDx=0;entryDy=0;exitX=0;exitY=0.25;exitDx=0;exitDy=0;" edge="1" parent="WIyWlLk6GJQsqaUBKTNV-1" source="CO2EWsQIseIJ-V9sM7O--45" target="CO2EWsQIseIJ-V9sM7O--45">
          <mxGeometry width="50" height="50" relative="1" as="geometry">
            <mxPoint x="500" y="570" as="sourcePoint" />
            <mxPoint x="550" y="520" as="targetPoint" />
          </mxGeometry>
        </mxCell>
        <mxCell id="CO2EWsQIseIJ-V9sM7O--47" value="" style="endArrow=none;html=1;rounded=0;entryX=1;entryY=0.75;entryDx=0;entryDy=0;exitX=0;exitY=0.75;exitDx=0;exitDy=0;" edge="1" parent="WIyWlLk6GJQsqaUBKTNV-1" source="CO2EWsQIseIJ-V9sM7O--45" target="CO2EWsQIseIJ-V9sM7O--45">
          <mxGeometry width="50" height="50" relative="1" as="geometry">
            <mxPoint x="490" y="542.5" as="sourcePoint" />
            <mxPoint x="670" y="542.5" as="targetPoint" />
            <Array as="points" />
          </mxGeometry>
        </mxCell>
        <mxCell id="CO2EWsQIseIJ-V9sM7O--48" style="edgeStyle=orthogonalEdgeStyle;rounded=0;orthogonalLoop=1;jettySize=auto;html=1;exitX=0.5;exitY=1;exitDx=0;exitDy=0;" edge="1" parent="WIyWlLk6GJQsqaUBKTNV-1" source="CO2EWsQIseIJ-V9sM7O--45" target="CO2EWsQIseIJ-V9sM7O--45">
          <mxGeometry relative="1" as="geometry" />
        </mxCell>
        <mxCell id="CO2EWsQIseIJ-V9sM7O--49" value="Çalışanlar" style="text;html=1;strokeColor=none;fillColor=none;align=center;verticalAlign=middle;whiteSpace=wrap;rounded=0;" vertex="1" parent="WIyWlLk6GJQsqaUBKTNV-1">
          <mxGeometry x="490" y="500" width="170" height="30" as="geometry" />
        </mxCell>
        <mxCell id="CO2EWsQIseIJ-V9sM7O--50" value="" style="endArrow=none;html=1;rounded=0;entryX=1;entryY=0.5;entryDx=0;entryDy=0;" edge="1" parent="WIyWlLk6GJQsqaUBKTNV-1" target="CO2EWsQIseIJ-V9sM7O--1">
          <mxGeometry width="50" height="50" relative="1" as="geometry">
            <mxPoint x="580" y="120" as="sourcePoint" />
            <mxPoint x="640" y="110" as="targetPoint" />
          </mxGeometry>
        </mxCell>
        <mxCell id="CO2EWsQIseIJ-V9sM7O--51" value="" style="endArrow=none;html=1;rounded=0;" edge="1" parent="WIyWlLk6GJQsqaUBKTNV-1">
          <mxGeometry width="50" height="50" relative="1" as="geometry">
            <mxPoint x="580" y="500" as="sourcePoint" />
            <mxPoint x="580" y="120" as="targetPoint" />
          </mxGeometry>
        </mxCell>
        <mxCell id="CO2EWsQIseIJ-V9sM7O--52" value="" style="endArrow=none;html=1;rounded=0;entryX=0;entryY=0.5;entryDx=0;entryDy=0;" edge="1" parent="WIyWlLk6GJQsqaUBKTNV-1" target="CO2EWsQIseIJ-V9sM7O--53">
          <mxGeometry width="50" height="50" relative="1" as="geometry">
            <mxPoint x="570" y="700" as="sourcePoint" />
            <mxPoint x="577" y="730" as="targetPoint" />
          </mxGeometry>
        </mxCell>
        <mxCell id="CO2EWsQIseIJ-V9sM7O--53" value="" style="triangle;whiteSpace=wrap;html=1;rotation=-90;" vertex="1" parent="WIyWlLk6GJQsqaUBKTNV-1">
          <mxGeometry x="563" y="633" width="14" height="27" as="geometry" />
        </mxCell>
        <mxCell id="CO2EWsQIseIJ-V9sM7O--54" value="" style="endArrow=none;html=1;rounded=0;" edge="1" parent="WIyWlLk6GJQsqaUBKTNV-1">
          <mxGeometry width="50" height="50" relative="1" as="geometry">
            <mxPoint x="680" y="700" as="sourcePoint" />
            <mxPoint x="570" y="700" as="targetPoint" />
          </mxGeometry>
        </mxCell>
        <mxCell id="CO2EWsQIseIJ-V9sM7O--55" value="" style="endArrow=none;html=1;rounded=0;" edge="1" parent="WIyWlLk6GJQsqaUBKTNV-1">
          <mxGeometry width="50" height="50" relative="1" as="geometry">
            <mxPoint x="480" y="700" as="sourcePoint" />
            <mxPoint x="570" y="700" as="targetPoint" />
            <Array as="points">
              <mxPoint x="490" y="700" />
            </Array>
          </mxGeometry>
        </mxCell>
        <mxCell id="CO2EWsQIseIJ-V9sM7O--56" value="" style="endArrow=none;html=1;rounded=0;" edge="1" parent="WIyWlLk6GJQsqaUBKTNV-1">
          <mxGeometry width="50" height="50" relative="1" as="geometry">
            <mxPoint x="480" y="730" as="sourcePoint" />
            <mxPoint x="480" y="700" as="targetPoint" />
            <Array as="points" />
          </mxGeometry>
        </mxCell>
        <mxCell id="CO2EWsQIseIJ-V9sM7O--57" value="" style="endArrow=none;html=1;rounded=0;" edge="1" parent="WIyWlLk6GJQsqaUBKTNV-1">
          <mxGeometry width="50" height="50" relative="1" as="geometry">
            <mxPoint x="680" y="730" as="sourcePoint" />
            <mxPoint x="680" y="700" as="targetPoint" />
            <Array as="points">
              <mxPoint x="680" y="720" />
            </Array>
          </mxGeometry>
        </mxCell>
        <mxCell id="CO2EWsQIseIJ-V9sM7O--59" value="" style="rounded=0;whiteSpace=wrap;html=1;" vertex="1" parent="WIyWlLk6GJQsqaUBKTNV-1">
          <mxGeometry x="420" y="730" width="120" height="110" as="geometry" />
        </mxCell>
        <mxCell id="CO2EWsQIseIJ-V9sM7O--60" value="" style="rounded=0;whiteSpace=wrap;html=1;" vertex="1" parent="WIyWlLk6GJQsqaUBKTNV-1">
          <mxGeometry x="620" y="730" width="120" height="110" as="geometry" />
        </mxCell>
        <mxCell id="CO2EWsQIseIJ-V9sM7O--61" value="" style="endArrow=none;html=1;rounded=0;exitX=0;exitY=0.25;exitDx=0;exitDy=0;entryX=1;entryY=0.25;entryDx=0;entryDy=0;" edge="1" parent="WIyWlLk6GJQsqaUBKTNV-1" source="CO2EWsQIseIJ-V9sM7O--59" target="CO2EWsQIseIJ-V9sM7O--59">
          <mxGeometry width="50" height="50" relative="1" as="geometry">
            <mxPoint x="460" y="820" as="sourcePoint" />
            <mxPoint x="510" y="770" as="targetPoint" />
          </mxGeometry>
        </mxCell>
        <mxCell id="CO2EWsQIseIJ-V9sM7O--62" value="" style="endArrow=none;html=1;rounded=0;exitX=0;exitY=0.75;exitDx=0;exitDy=0;entryX=1;entryY=0.75;entryDx=0;entryDy=0;" edge="1" parent="WIyWlLk6GJQsqaUBKTNV-1" source="CO2EWsQIseIJ-V9sM7O--59" target="CO2EWsQIseIJ-V9sM7O--59">
          <mxGeometry width="50" height="50" relative="1" as="geometry">
            <mxPoint x="470" y="830" as="sourcePoint" />
            <mxPoint x="520" y="780" as="targetPoint" />
          </mxGeometry>
        </mxCell>
        <mxCell id="CO2EWsQIseIJ-V9sM7O--63" value="" style="endArrow=none;html=1;rounded=0;entryX=1;entryY=0.25;entryDx=0;entryDy=0;exitX=0;exitY=0.25;exitDx=0;exitDy=0;" edge="1" parent="WIyWlLk6GJQsqaUBKTNV-1" source="CO2EWsQIseIJ-V9sM7O--60" target="CO2EWsQIseIJ-V9sM7O--60">
          <mxGeometry width="50" height="50" relative="1" as="geometry">
            <mxPoint x="480" y="840" as="sourcePoint" />
            <mxPoint x="530" y="790" as="targetPoint" />
          </mxGeometry>
        </mxCell>
        <mxCell id="CO2EWsQIseIJ-V9sM7O--64" value="" style="endArrow=none;html=1;rounded=0;entryX=1;entryY=0.75;entryDx=0;entryDy=0;exitX=0;exitY=0.75;exitDx=0;exitDy=0;" edge="1" parent="WIyWlLk6GJQsqaUBKTNV-1" source="CO2EWsQIseIJ-V9sM7O--60" target="CO2EWsQIseIJ-V9sM7O--60">
          <mxGeometry width="50" height="50" relative="1" as="geometry">
            <mxPoint x="490" y="850" as="sourcePoint" />
            <mxPoint x="540" y="800" as="targetPoint" />
          </mxGeometry>
        </mxCell>
        <mxCell id="CO2EWsQIseIJ-V9sM7O--65" value="Memur" style="text;html=1;strokeColor=none;fillColor=none;align=center;verticalAlign=middle;whiteSpace=wrap;rounded=0;" vertex="1" parent="WIyWlLk6GJQsqaUBKTNV-1">
          <mxGeometry x="419" y="730" width="121" height="30" as="geometry" />
        </mxCell>
        <mxCell id="CO2EWsQIseIJ-V9sM7O--66" value="Profesör" style="text;html=1;strokeColor=none;fillColor=none;align=center;verticalAlign=middle;whiteSpace=wrap;rounded=0;" vertex="1" parent="WIyWlLk6GJQsqaUBKTNV-1">
          <mxGeometry x="620" y="730" width="121" height="30" as="geometry" />
        </mxCell>
        <mxCell id="CO2EWsQIseIJ-V9sM7O--67" value="" style="endArrow=none;html=1;rounded=0;entryX=0;entryY=0.75;entryDx=0;entryDy=0;" edge="1" parent="WIyWlLk6GJQsqaUBKTNV-1" target="CO2EWsQIseIJ-V9sM7O--45">
          <mxGeometry width="50" height="50" relative="1" as="geometry">
            <mxPoint x="200" y="605" as="sourcePoint" />
            <mxPoint x="350" y="550" as="targetPoint" />
          </mxGeometry>
        </mxCell>
        <mxCell id="CO2EWsQIseIJ-V9sM7O--68" value="1" style="text;html=1;strokeColor=none;fillColor=none;align=center;verticalAlign=middle;whiteSpace=wrap;rounded=0;" vertex="1" parent="WIyWlLk6GJQsqaUBKTNV-1">
          <mxGeometry x="200" y="570" width="60" height="30" as="geometry" />
        </mxCell>
        <mxCell id="CO2EWsQIseIJ-V9sM7O--69" value="1..*" style="text;html=1;strokeColor=none;fillColor=none;align=center;verticalAlign=middle;whiteSpace=wrap;rounded=0;" vertex="1" parent="WIyWlLk6GJQsqaUBKTNV-1">
          <mxGeometry x="419" y="570" width="60" height="30" as="geometry" />
        </mxCell>
        <mxCell id="CO2EWsQIseIJ-V9sM7O--71" value="*" style="text;html=1;strokeColor=none;fillColor=none;align=center;verticalAlign=middle;whiteSpace=wrap;rounded=0;" vertex="1" parent="WIyWlLk6GJQsqaUBKTNV-1">
          <mxGeometry x="710" y="269.40999999999997" width="60" height="30" as="geometry" />
        </mxCell>
        <mxCell id="CO2EWsQIseIJ-V9sM7O--72" value="*" style="text;html=1;strokeColor=none;fillColor=none;align=center;verticalAlign=middle;whiteSpace=wrap;rounded=0;" vertex="1" parent="WIyWlLk6GJQsqaUBKTNV-1">
          <mxGeometry x="410" y="269.40999999999997" width="60" height="30" as="geometry" />
        </mxCell>
        <mxCell id="CO2EWsQIseIJ-V9sM7O--73" value="*" style="text;html=1;strokeColor=none;fillColor=none;align=center;verticalAlign=middle;whiteSpace=wrap;rounded=0;" vertex="1" parent="WIyWlLk6GJQsqaUBKTNV-1">
          <mxGeometry x="110" y="269.40999999999997" width="60" height="30" as="geometry" />
        </mxCell>
        <mxCell id="CO2EWsQIseIJ-V9sM7O--74" value="1" style="text;html=1;strokeColor=none;fillColor=none;align=center;verticalAlign=middle;whiteSpace=wrap;rounded=0;" vertex="1" parent="WIyWlLk6GJQsqaUBKTNV-1">
          <mxGeometry x="503" y="80" width="60" height="30" as="geometry" />
        </mxCell>
      </root>
    </mxGraphModel>
  </diagram>
</mxfile>
